<?xml version="1.0" encoding="UTF-8"?>
<svg xmlns="http://www.w3.org/2000/svg" xmlns:xlink="http://www.w3.org/1999/xlink" width="15pt" height="15pt" viewBox="0 0 15 15" version="1.1">
<g id="surface1">
<path style=" stroke:none;fill-rule:evenodd;fill:rgb(100%,25.490196%,25.490196%);fill-opacity:1;" d="M 7.492188 0 C 11.628906 0 14.984375 3.355469 14.984375 7.492188 C 14.984375 11.628906 11.628906 14.984375 7.492188 14.984375 C 3.355469 14.984375 0 11.628906 0 7.492188 C 0 3.355469 3.355469 0 7.492188 0 Z M 8.957031 4.773438 C 9.292969 4.433594 9.839844 4.433594 10.175781 4.769531 C 10.511719 5.109375 10.511719 5.660156 10.179688 6 L 8.707031 7.492188 L 10.179688 8.988281 C 10.511719 9.324219 10.507812 9.871094 10.171875 10.210938 C 9.832031 10.546875 9.289062 10.546875 8.957031 10.207031 L 7.492188 8.722656 L 6.027344 10.210938 C 5.691406 10.550781 5.148438 10.554688 4.808594 10.214844 C 4.472656 9.875 4.472656 9.324219 4.808594 8.984375 L 6.277344 7.492188 L 4.804688 6 C 4.472656 5.660156 4.476562 5.113281 4.816406 4.777344 C 5.152344 4.4375 5.695312 4.441406 6.027344 4.777344 L 7.492188 6.261719 Z M 8.957031 4.773438 "/>
</g>
</svg>
